<?xml version="1.0" encoding="utf-8"?>
<!-- Generator: Adobe Illustrator 24.0.2, SVG Export Plug-In . SVG Version: 6.00 Build 0)  -->
<svg version="1.1" id="Layer_1" xmlns="http://www.w3.org/2000/svg" xmlns:xlink="http://www.w3.org/1999/xlink" x="0px" y="0px"
	 viewBox="0 0 264 62.3" style="enable-background:new 0 0 264 62.3;" xml:space="preserve">
<style type="text/css">
	.st0{fill:#0066FF;}
	.st1{fill:#4DC74F;}
	.st2{fill:#1E3C5A;}
	.st3{fill:url(#SVGID_1_);}
	.st4{fill:url(#SVGID_2_);}
</style>
<title>c9bcf8ef-8d8d-44cf-af17-390060ead036</title>
<path class="st0" d="M59.2,28.5l1.6-2.9c0.3-0.4,0.8-0.5,1.2-0.2c0.1,0.1,2.6,1.9,4.9,1.9c1.2,0.1,2.3-0.7,2.4-1.9c0,0,0-0.1,0-0.1
	c0-1.5-1.2-2.6-3.6-3.5c-3-1.2-6.7-3.5-6.7-7.6c0-3.4,2.7-6.9,8-6.9c2.7,0.1,5.3,1,7.4,2.6c0.3,0.3,0.4,0.7,0.2,1.1l-1.8,2.7
	c-0.2,0.4-0.9,0.7-1.2,0.4s-2.9-2.1-5-2.1c-1.1-0.1-2.1,0.7-2.2,1.8c0,1.3,1,2.3,3.8,3.4s7,3.2,7,7.9c0,3.6-3.1,7.2-8.2,7.2
	c-4.5,0-7-1.9-7.8-2.7C59,29.2,58.9,29,59.2,28.5z"/>
<path class="st0" d="M83.8,20.2L76.2,8.6c-0.2-0.3-0.1-0.7,0.2-0.9c0.1-0.1,0.2-0.1,0.4-0.1h4.5c0.2,0,0.4,0.1,0.6,0.3l4.8,7.1
	l4.8-7.1c0.1-0.2,0.3-0.3,0.6-0.3h4.5c0.4,0,0.6,0.3,0.7,0.6c0,0.1,0,0.3-0.1,0.4l-7.8,11.5v11c0,0.4-0.3,0.6-0.7,0.7h-4.1
	c-0.4,0-0.7-0.3-0.7-0.6c0,0,0,0,0,0V20.2z"/>
<path class="st0" d="M97.8,28.5l1.6-2.9c0.3-0.4,0.8-0.5,1.2-0.2c0.1,0.1,2.6,1.9,4.9,1.9c1.2,0.1,2.3-0.8,2.4-2c0,0,0-0.1,0-0.1
	c0-1.5-1.2-2.6-3.6-3.5c-3-1.2-6.7-3.5-6.7-7.6c0-3.4,2.7-6.9,8-6.9c2.7,0.1,5.3,1,7.4,2.6c0.3,0.3,0.4,0.7,0.2,1.1l-1.8,2.7
	c-0.2,0.4-0.9,0.7-1.2,0.4s-2.8-2.1-5-2.1c-1.1-0.1-2.1,0.7-2.2,1.8c0,1.3,1,2.3,3.8,3.4s7,3.2,7,7.9c0,3.6-3.1,7.2-8.2,7.2
	c-4.5,0-7-1.9-7.8-2.7C97.7,29.2,97.6,29,97.8,28.5z"/>
<path class="st0" d="M121.1,12.7h-4.9c-0.4,0-0.7-0.3-0.7-0.6V8.2c0-0.4,0.3-0.7,0.7-0.7l0,0h15.4c0.4,0,0.7,0.3,0.7,0.7
	c0,0,0,0,0,0V12c0,0.4-0.3,0.7-0.7,0.6h-5v18.5c0,0.4-0.3,0.6-0.7,0.7h-4.2c-0.4,0-0.6-0.3-0.7-0.7L121.1,12.7z"/>
<path class="st0" d="M134.9,8.2c0-0.4,0.3-0.7,0.6-0.7c0,0,0,0,0,0h14.3c0.4,0,0.7,0.3,0.7,0.6c0,0,0,0,0,0V12
	c0,0.4-0.3,0.6-0.6,0.6h-9.6V17h7.9c0.4,0,0.6,0.3,0.7,0.7v3.7c0,0.4-0.3,0.7-0.7,0.7h-7.9v4.7h9.6c0.4,0,0.6,0.3,0.6,0.6v3.8
	c0,0.4-0.3,0.7-0.6,0.7c0,0,0,0,0,0h-14.3c-0.4,0-0.7-0.3-0.7-0.6c0,0,0,0,0,0V8.2z"/>
<path class="st0" d="M157.2,7.8c0-0.3,0.3-0.5,0.6-0.6h0.6c0.2,0,0.5,0.1,0.6,0.3l8,15h0.1l8-15c0.1-0.2,0.4-0.3,0.6-0.3h0.6
	c0.3,0,0.6,0.2,0.6,0.6l3.9,23.3c0.1,0.3-0.1,0.7-0.5,0.7c-0.1,0-0.1,0-0.2,0h-4c-0.3,0-0.6-0.2-0.7-0.6l-1.6-10.7h-0.1l-5.8,11.2
	c-0.1,0.2-0.3,0.4-0.6,0.4h-0.6c-0.2,0-0.5-0.2-0.6-0.4l-5.9-11.2h-0.1l-1.5,10.7c-0.1,0.3-0.3,0.6-0.7,0.6h-4.1
	c-0.3,0-0.6-0.2-0.7-0.6c0-0.1,0-0.1,0-0.2L157.2,7.8z"/>
<path class="st1" d="M183.2,28.5l1.6-2.9c0.3-0.4,0.8-0.5,1.2-0.2c0.1,0.1,2.6,1.9,4.9,1.9c1.2,0.1,2.3-0.8,2.4-2c0,0,0-0.1,0-0.1
	c0-1.5-1.2-2.6-3.6-3.5c-3-1.2-6.7-3.5-6.7-7.6c0-3.4,2.7-6.9,8-6.9c2.7,0.1,5.3,1,7.4,2.6c0.3,0.3,0.4,0.7,0.2,1.1l-1.8,2.7
	c-0.3,0.4-0.9,0.7-1.2,0.4s-2.8-2.1-5-2.1c-1.1-0.1-2.1,0.7-2.2,1.8c0,1.3,1,2.3,3.8,3.4s7,3.2,7,7.9c0,3.6-3.1,7.2-8.2,7.2
	c-4.5,0-7-1.9-7.8-2.7C183.1,29.2,183,29,183.2,28.5z"/>
<path class="st1" d="M213.8,7.2c6.9,0,12.5,5.6,12.5,12.4c0,6.9-5.6,12.5-12.4,12.5c-6.9,0-12.5-5.6-12.5-12.4
	C201.3,12.9,206.8,7.3,213.8,7.2C213.7,7.2,213.7,7.2,213.8,7.2z M213.8,26.6c3.8,0,6.9-3.1,7-6.9s-3.1-6.9-6.9-7s-6.9,3.1-7,6.9
	c0,0,0,0,0,0.1C206.9,23.5,210,26.6,213.8,26.6z"/>
<path class="st1" d="M230,8.2c0-0.4,0.3-0.7,0.7-0.7l0,0H245c0.4,0,0.7,0.3,0.7,0.7c0,0,0,0,0,0V12c0,0.4-0.3,0.7-0.7,0.6h-9.6v5
	h7.9c0.4,0,0.6,0.3,0.7,0.7v3.8c0,0.4-0.3,0.6-0.7,0.7h-7.9v8.4c0,0.4-0.3,0.6-0.7,0.7h-4.1c-0.4,0-0.7-0.3-0.7-0.7c0,0,0,0,0,0
	L230,8.2z"/>
<path class="st1" d="M252.9,12.7h-5c-0.4,0-0.6-0.3-0.6-0.6V8.2c0-0.4,0.3-0.7,0.6-0.7c0,0,0,0,0,0h15.4c0.4,0,0.7,0.3,0.7,0.7
	c0,0,0,0,0,0V12c0,0.4-0.3,0.7-0.7,0.6h-5v18.5c0,0.4-0.3,0.6-0.7,0.7h-4.1c-0.4,0-0.6-0.3-0.7-0.7L252.9,12.7z"/>
<path class="st2" d="M60.9,42.8h-2.8c-0.2,0-0.3-0.1-0.3-0.3v0v-1c0-0.2,0.1-0.3,0.3-0.3h0h7.4c0.2,0,0.3,0.1,0.3,0.3v0v1
	c0,0.2-0.1,0.3-0.3,0.3l0,0h-2.8V53c0,0.2-0.2,0.3-0.3,0.3h-1.1c-0.2,0-0.3-0.1-0.3-0.3V42.8z"/>
<path class="st2" d="M67.9,41.5c0-0.2,0.1-0.3,0.3-0.3l0,0h6.9c0.2,0,0.3,0.1,0.3,0.3v0v1c0,0.2-0.1,0.3-0.3,0.3l0,0h-5.5v3.5h4.6
	c0.2,0,0.3,0.2,0.3,0.3v1c0,0.2-0.1,0.3-0.3,0.3l0,0h-4.6v3.7h5.5c0.2,0,0.3,0.1,0.3,0.3c0,0,0,0,0,0v1c0,0.2-0.1,0.3-0.3,0.3l0,0
	h-6.9c-0.2,0-0.3-0.1-0.3-0.3v0V41.5z"/>
<path class="st2" d="M83.3,41c1.6,0,3.1,0.6,4.2,1.6c0.1,0.1,0.2,0.3,0,0.4c0,0,0,0,0,0l-0.8,0.8c-0.1,0.2-0.3,0.2-0.4,0
	c-0.8-0.7-1.9-1.2-3-1.2c-2.5,0-4.5,2-4.5,4.5c0,2.5,2,4.5,4.5,4.5c1.1,0,2.2-0.4,3-1.1c0.1-0.1,0.3-0.1,0.4,0l0.8,0.8
	c0.1,0.1,0.1,0.3,0,0.5c-1.1,1.1-2.6,1.7-4.2,1.7c-3.4,0.1-6.3-2.5-6.5-6s2.5-6.3,6-6.5C82.9,41,83.1,41,83.3,41L83.3,41z"/>
<path class="st2" d="M90.1,41.5c0-0.2,0.2-0.3,0.3-0.3h1.1c0.2,0,0.3,0.1,0.3,0.3v0v4.8h6.3v-4.8c0-0.2,0.1-0.3,0.3-0.3l0,0h1.1
	c0.2,0,0.3,0.2,0.3,0.3V53c0,0.2-0.2,0.3-0.3,0.3h-1.1c-0.2,0-0.3-0.1-0.3-0.3v0v-5h-6.3v5c0,0.2-0.1,0.3-0.3,0.3l0,0h-1.1
	c-0.2,0-0.3-0.2-0.3-0.3L90.1,41.5z"/>
<path class="st2" d="M103.5,41.3c0-0.2,0.2-0.3,0.3-0.3h0.4l7.5,8.7l0,0v-8.2c0-0.2,0.1-0.3,0.3-0.3l0,0h1.1c0.2,0,0.3,0.1,0.3,0.3
	v11.7c0,0.2-0.2,0.3-0.3,0.3c0,0,0,0,0,0h-0.4l-7.5-8.9l0,0V53c0,0.2-0.1,0.3-0.3,0.3l0,0h-1.1c-0.2,0-0.3-0.2-0.3-0.3V41.3z"/>
<path class="st2" d="M122.5,41c3.4,0,6.2,2.8,6.3,6.2c0,3.4-2.8,6.2-6.2,6.3c-3.4,0-6.2-2.8-6.3-6.2c0,0,0,0,0,0
	C116.2,43.8,119,41,122.5,41C122.4,41,122.5,41,122.5,41z M122.5,51.7c2.5,0,4.5-2,4.5-4.5c0-2.5-2-4.5-4.5-4.5s-4.5,2-4.5,4.5
	c0,0,0,0.1,0,0.1C118,49.7,120,51.8,122.5,51.7L122.5,51.7z"/>
<path class="st2" d="M131.4,41.5c0-0.2,0.1-0.3,0.3-0.3l0,0h1.1c0.2,0,0.3,0.2,0.3,0.3v10.2h4.7c0.2,0,0.3,0.1,0.3,0.3c0,0,0,0,0,0
	v1c0,0.2-0.1,0.3-0.3,0.3l0,0h-6.2c-0.2,0-0.3-0.1-0.3-0.3v0V41.5z"/>
<path class="st2" d="M145.1,41c3.4,0,6.2,2.8,6.3,6.2c0,3.4-2.8,6.2-6.2,6.3s-6.2-2.8-6.3-6.2c0,0,0,0,0,0
	C138.9,43.8,141.7,41,145.1,41C145.1,41,145.1,41,145.1,41z M145.1,51.7c2.5,0,4.5-2,4.5-4.5c0-2.5-2-4.5-4.5-4.5
	c-2.5,0-4.5,2-4.5,4.5c0,0,0,0,0,0C140.6,49.7,142.7,51.8,145.1,51.7C145.1,51.8,145.1,51.8,145.1,51.7L145.1,51.7z"/>
<path class="st2" d="M159.5,41c1.6,0,3.1,0.6,4.2,1.6c0.1,0.1,0.1,0.3,0,0.5l-0.8,0.8c-0.1,0.2-0.3,0.1-0.4,0
	c-0.8-0.7-1.9-1.2-3-1.2c-2.5,0-4.5,2-4.5,4.5s2,4.5,4.5,4.5c0.9,0,1.8-0.2,2.6-0.6v-1.9h-1.7c-0.2,0-0.3-0.1-0.3-0.3c0,0,0,0,0,0
	v-1c0-0.2,0.1-0.3,0.3-0.3c0,0,0,0,0,0h3.1c0.2,0,0.3,0.1,0.3,0.3c0,0,0,0,0,0c0,1.4,0,2.8,0,4.2c0,0.1-0.1,0.2-0.1,0.3
	c-1.3,0.7-2.8,1.1-4.3,1.1c-3.4-0.1-6.1-3-6-6.5C153.6,43.8,156.2,41.2,159.5,41L159.5,41z"/>
<path class="st2" d="M167,41.5c0-0.2,0.2-0.3,0.3-0.3h1.1c0.2,0,0.3,0.1,0.3,0.3V53c0,0.2-0.1,0.3-0.3,0.3h-1.1
	c-0.2,0-0.3-0.2-0.3-0.3V41.5z"/>
<path class="st2" d="M172.3,41.5c0-0.2,0.1-0.3,0.3-0.3l0,0h6.9c0.2,0,0.3,0.1,0.3,0.3v0v1c0,0.2-0.1,0.3-0.3,0.3l0,0h-5.5v3.5h4.6
	c0.2,0,0.3,0.2,0.3,0.3v1c0,0.2-0.1,0.3-0.3,0.3l0,0h-4.6v3.7h5.5c0.2,0,0.3,0.1,0.3,0.3c0,0,0,0,0,0v1c0,0.2-0.1,0.3-0.3,0.3l0,0
	h-6.9c-0.2,0-0.3-0.1-0.3-0.3v0V41.5z"/>
<path class="st2" d="M181.9,51.6c0.2-0.2,0.3-0.5,0.5-0.7c0.1-0.2,0.3-0.3,0.5-0.2c0,0,0.1,0,0.1,0c0.8,0.7,1.7,1.1,2.8,1.2
	c0.9,0.1,1.8-0.5,2-1.5c0-0.1,0-0.1,0-0.2c0-1-0.9-1.7-2.6-2.4s-3.2-1.7-3.2-3.7c0-1.3,1-3.2,3.8-3.2c1.1,0,2.3,0.4,3.2,1
	c0.2,0.1,0.2,0.4,0.1,0.6c0,0,0,0,0,0l-0.4,0.7c-0.1,0.2-0.3,0.3-0.5,0.2c0,0-0.1,0-0.1,0c-0.7-0.5-1.5-0.8-2.3-0.9
	c-1.5,0-2,0.9-2,1.5c0,1,0.8,1.6,2.2,2.2c2,0.8,3.7,1.8,3.7,3.9c0,1.8-1.6,3.3-3.9,3.3c-1.4,0-2.7-0.5-3.8-1.3
	C181.9,52,181.8,51.9,181.9,51.6z"/>
<path class="st0" d="M24.2,22.5l7.6,23.7l-14.3,8.3c0,0-10.6,6.3-13,7.7c-0.3,0.2-0.8,0.1-1-0.3c-0.1-0.1-0.1-0.2-0.1-0.4"/>
<linearGradient id="SVGID_1_" gradientUnits="userSpaceOnUse" x1="6.4098" y1="16.1104" x2="33.6698" y2="33.6204" gradientTransform="matrix(1 0 0 -1 0 64)">
	<stop  offset="7.000000e-02" style="stop-color:#10A8E5;stop-opacity:0"/>
	<stop  offset="0.34" style="stop-color:#154B6F;stop-opacity:0.43"/>
	<stop  offset="0.5" style="stop-color:#172540;stop-opacity:0.6"/>
</linearGradient>
<polyline class="st3" points="24.2,22.5 27.6,43.4 28.4,44.9 26.7,48.2 22,51.9 4.6,62.1 3.4,61.6 "/>
<path class="st0" d="M16.5,37.1L9,14l16.9-9.6c0,0,5-2.9,7.4-4.3c0.3-0.2,0.8-0.1,1,0.3c0.1,0.1,0.1,0.2,0.1,0.4"/>
<linearGradient id="SVGID_2_" gradientUnits="userSpaceOnUse" x1="21.655" y1="63.71" x2="21.655" y2="26.92" gradientTransform="matrix(1 0 0 -1 0 64)">
	<stop  offset="7.000000e-02" style="stop-color:#10A8E5;stop-opacity:0"/>
	<stop  offset="0.34" style="stop-color:#154B6F;stop-opacity:0.43"/>
	<stop  offset="0.5" style="stop-color:#172540;stop-opacity:0.6"/>
</linearGradient>
<polyline class="st4" points="16.5,37.1 9.9,19 9.1,17.5 10.8,14.2 15.6,10.5 32.9,0.3 34.2,0.8 "/>
<path class="st1" d="M37.9,31l-9-5.2c-0.6-0.5-1.3-1-2.1-1.5C10,13.5,18.7,8.6,33.3,0.1L9,14.1l0,0l-5.6,3.2
	c-3.3,1.9-4.4,6.1-2.5,9.4c0.6,1,1.5,1.9,2.5,2.5l9,5.2c0.6,0.5,1.3,1,2.1,1.5c16.8,10.8,4.5,18-10.1,26.4l28-16.2l0,0l5.5-3.2
	c3.3-1.9,4.4-6.1,2.5-9.4C39.8,32.4,38.9,31.6,37.9,31L37.9,31z"/>
</svg>
